<?xml version="1.0" encoding="UTF-8" standalone="no"?>
<svg
   xmlns:dc="http://purl.org/dc/elements/1.1/"
   xmlns:cc="http://creativecommons.org/ns#"
   xmlns:rdf="http://www.w3.org/1999/02/22-rdf-syntax-ns#"
   xmlns:svg="http://www.w3.org/2000/svg"
   xmlns="http://www.w3.org/2000/svg"
   viewBox="0 0 793.70081 1122.5197"
   height="1122.5197"
   width="793.70081"
   xml:space="preserve"
   id="svg2"
   version="1.1"><metadata
     id="metadata8"><rdf:RDF><cc:Work
         rdf:about=""><dc:format>image/svg+xml</dc:format><dc:type
           rdf:resource="http://purl.org/dc/dcmitype/StillImage" /></cc:Work></rdf:RDF></metadata><defs
     id="defs6"><clipPath
       id="clipPath18"
       clipPathUnits="userSpaceOnUse"><path
         style="clip-rule:evenodd"
         id="path16"
         d="M 0,0 H 595.2756 V 841.8898 H 0 Z" /></clipPath><clipPath
       id="clipPath26"
       clipPathUnits="userSpaceOnUse"><path
         style="clip-rule:evenodd"
         id="path24"
         d="M -8.5039,-8.5039 H 603.7796 V 850.3937 H -8.5039 Z" /></clipPath><linearGradient
       id="linearGradient94"
       spreadMethod="pad"
       gradientTransform="matrix(1,0,0,-1,0,857.63125)"
       gradientUnits="userSpaceOnUse"
       y2="857.64001"
       x2="297.647"
       y1="592.54401"
       x1="297.647"><stop
         id="stop78"
         offset="0"
         style="stop-opacity:1;stop-color:#004f9f" /><stop
         id="stop80"
         offset="0.09"
         style="stop-opacity:1;stop-color:#004f9f" /><stop
         id="stop82"
         offset="0.285"
         style="stop-opacity:1;stop-color:#72378d" /><stop
         id="stop84"
         offset="0.48"
         style="stop-opacity:1;stop-color:#d7007f" /><stop
         id="stop86"
         offset="0.665"
         style="stop-opacity:1;stop-color:#eb5d40" /><stop
         id="stop88"
         offset="0.85"
         style="stop-opacity:1;stop-color:#fbba00" /><stop
         id="stop90"
         offset="0.96"
         style="stop-opacity:1;stop-color:#ffdd00" /><stop
         id="stop92"
         offset="1"
         style="stop-opacity:1;stop-color:#ffdd00" /></linearGradient><linearGradient
       id="linearGradient124"
       spreadMethod="pad"
       gradientTransform="matrix(1,0,0,-1,0,857.63125)"
       gradientUnits="userSpaceOnUse"
       y2="167.54401"
       x2="297.647"
       y1="15.75"
       x1="297.647"><stop
         id="stop108"
         offset="0"
         style="stop-opacity:1;stop-color:#004f9f" /><stop
         id="stop110"
         offset="0.09"
         style="stop-opacity:1;stop-color:#004f9f" /><stop
         id="stop112"
         offset="0.285"
         style="stop-opacity:1;stop-color:#72378d" /><stop
         id="stop114"
         offset="0.48"
         style="stop-opacity:1;stop-color:#d7007f" /><stop
         id="stop116"
         offset="0.665"
         style="stop-opacity:1;stop-color:#eb5d40" /><stop
         id="stop118"
         offset="0.85"
         style="stop-opacity:1;stop-color:#fbba00" /><stop
         id="stop120"
         offset="0.96"
         style="stop-opacity:1;stop-color:#ffdd00" /><stop
         id="stop122"
         offset="1"
         style="stop-opacity:1;stop-color:#ffdd00" /></linearGradient><clipPath
       id="clipPath142"
       clipPathUnits="userSpaceOnUse"><path
         style="clip-rule:evenodd"
         id="path140"
         d="m 181.6718,481.8898 h 231.932 v 38.2677 h -231.932 z" /></clipPath><clipPath
       id="clipPath180"
       clipPathUnits="userSpaceOnUse"><path
         style="clip-rule:evenodd"
         id="path178"
         d="m 206.9291,326.8504 h 181.4173 v 25.5118 H 206.9291 Z" /></clipPath><clipPath
       id="clipPath234"
       clipPathUnits="userSpaceOnUse"><path
         style="clip-rule:evenodd"
         id="path232"
         d="m 265.8281,189.9213 h 63.6195 v 48.4724 h -63.6195 z" /></clipPath></defs><g
     transform="matrix(1.3333333,0,0,-1.3333333,0,1122.5197)"
     id="g10"><g
       id="g12"><g
         clip-path="url(#clipPath18)"
         id="g14"><g
           id="g20"><g
             clip-path="url(#clipPath26)"
             id="g22"><g
               transform="matrix(1.0202,0,0,-1.0202,-6.0216,850.3937)"
               id="g28"><path
                 id="path30"
                 style="fill:#1e1e1c;fill-opacity:1;fill-rule:nonzero;stroke:none"
                 d="m 79.4,42.9 h 4.7 v 1.9 h -4.7 v 5.1 h -2 V 38 h 7.1 v 1.9 h -5 z" /></g><g
               transform="matrix(1.0202,0,0,-1.0202,-6.0216,850.3937)"
               id="g32"><path
                 id="path34"
                 style="fill:#1e1e1c;fill-opacity:1;fill-rule:nonzero;stroke:none"
                 d="M 88.7,50.2 C 88.3,50.2 87.9,50.1 87.6,50 87.2,49.9 86.9,49.7 86.7,49.4 86.4,49.1 86.2,48.8 86,48.4 85.8,48 85.8,47.6 85.8,47.1 v -5.2 h 2 v 4.6 c 0,0.6 0.1,1 0.4,1.3 0.3,0.3 0.7,0.4 1.2,0.4 0.3,0 0.5,-0.1 0.7,-0.2 0.2,-0.1 0.4,-0.2 0.5,-0.3 0.2,-0.1 0.3,-0.3 0.4,-0.5 v -5.4 h 2 v 8.1 h -1.9 v -1.2 c -0.2,0.3 -0.4,0.5 -0.6,0.7 -0.2,0.2 -0.4,0.3 -0.8,0.5 -0.2,0.2 -0.6,0.3 -1,0.3 z" /></g><g
               transform="matrix(1.0202,0,0,-1.0202,-6.0216,850.3937)"
               id="g36"><path
                 id="path38"
                 style="fill:#1e1e1c;fill-opacity:1;fill-rule:nonzero;stroke:none"
                 d="M 94.4,41.9 H 96 v -2.4 h 2 v 2.4 h 2.4 v 1.8 H 98 V 47 c 0,0.3 0,0.5 0.1,0.6 0.1,0.2 0.1,0.3 0.2,0.4 0.1,0.1 0.2,0.2 0.3,0.2 0.1,0 0.3,0.1 0.4,0.1 h 0.3 c 0.1,0 0.2,-0.1 0.3,-0.1 0.1,0 0.2,-0.1 0.3,-0.2 l 0.7,1.7 c -0.1,0.1 -0.3,0.2 -0.5,0.3 -0.2,0.1 -0.4,0.1 -0.6,0.2 -0.2,0.1 -0.5,0.1 -0.8,0.1 -0.4,0 -0.8,-0.1 -1.1,-0.2 C 97.3,50 97,49.8 96.7,49.5 96.5,49.3 96.3,48.9 96.1,48.6 96,48.2 95.9,47.9 95.9,47.4 v -3.6 h -1.6 z" /></g><g
               transform="matrix(1.0202,0,0,-1.0202,-6.0216,850.3937)"
               id="g40"><path
                 id="path42"
                 style="fill:#1e1e1c;fill-opacity:1;fill-rule:nonzero;stroke:none"
                 d="m 104.9,50.2 c -0.4,0 -0.8,-0.1 -1.1,-0.2 -0.4,-0.1 -0.7,-0.3 -0.9,-0.6 -0.3,-0.3 -0.5,-0.6 -0.7,-1 C 102,48 102,47.6 102,47.1 v -5.2 h 2 v 4.6 c 0,0.6 0.1,1 0.4,1.3 0.3,0.3 0.7,0.4 1.2,0.4 0.3,0 0.5,-0.1 0.7,-0.2 0.2,-0.1 0.4,-0.2 0.5,-0.3 0.2,-0.1 0.3,-0.3 0.4,-0.5 v -5.4 h 2 v 8.1 h -1.9 v -1.2 c -0.2,0.3 -0.4,0.5 -0.6,0.7 -0.2,0.2 -0.4,0.3 -0.7,0.5 -0.4,0.2 -0.7,0.3 -1.1,0.3 z" /></g><g
               transform="matrix(1.0202,0,0,-1.0202,-6.0216,850.3937)"
               id="g44"><path
                 id="path46"
                 style="fill:#1e1e1c;fill-opacity:1;fill-rule:nonzero;stroke:none"
                 d="m 115.2,41.7 h 0.5 c 0.2,0 0.3,0.1 0.4,0.1 0.1,0 0.3,0.1 0.4,0.1 l -0.7,1.8 c -0.1,0 -0.2,-0.1 -0.3,-0.1 -0.1,0 -0.2,0 -0.3,-0.1 h -0.4 c -0.3,0 -0.6,0.1 -0.8,0.2 -0.2,0.1 -0.4,0.2 -0.6,0.4 -0.2,0.2 -0.3,0.3 -0.4,0.5 v 5.3 h -2 v -8.1 h 1.9 V 43 c 0.1,-0.3 0.3,-0.5 0.5,-0.7 0.2,-0.2 0.4,-0.3 0.7,-0.5 0.4,-0.1 0.8,-0.1 1.1,-0.1 z" /></g><g
               transform="matrix(1.0202,0,0,-1.0202,-6.0216,850.3937)"
               id="g48"><path
                 id="path50"
                 style="fill:#1e1e1c;fill-opacity:1;fill-rule:nonzero;stroke:none"
                 d="m 120.7,41.7 c 0.6,0 1.1,0.1 1.6,0.3 0.5,0.2 0.9,0.5 1.3,0.9 0.4,0.4 0.7,0.8 0.9,1.3 0.2,0.5 0.3,1.1 0.3,1.7 v 0.7 h -6 c 0,0.2 0.1,0.4 0.2,0.6 0.1,0.2 0.3,0.4 0.5,0.5 0.2,0.2 0.4,0.3 0.7,0.4 0.3,0.1 0.6,0.2 0.9,0.2 0.4,0 0.7,0 0.9,-0.1 0.3,-0.1 0.5,-0.2 0.7,-0.3 0.2,-0.1 0.4,-0.3 0.6,-0.4 l 1,1.5 -0.9,0.6 c -0.3,0.1 -0.6,0.3 -1,0.4 -0.4,0.1 -0.8,0.2 -1.3,0.2 -0.6,0 -1.2,-0.1 -1.7,-0.3 -0.5,-0.2 -1,-0.5 -1.4,-0.9 -0.4,-0.4 -0.7,-0.8 -0.9,-1.3 -0.2,-0.5 -0.3,-1.1 -0.3,-1.7 0,-0.6 0.1,-1.1 0.3,-1.7 0.2,-0.5 0.5,-1 0.8,-1.3 0.4,-0.4 0.8,-0.7 1.3,-0.9 0.4,-0.3 0.9,-0.4 1.5,-0.4 z m 2,3.5 c 0,-0.2 -0.1,-0.4 -0.1,-0.5 -0.1,-0.2 -0.2,-0.4 -0.4,-0.5 -0.2,-0.2 -0.4,-0.3 -0.6,-0.4 -0.3,-0.1 -0.5,-0.2 -0.9,-0.2 -0.3,0 -0.6,0.1 -0.9,0.2 -0.2,0.1 -0.4,0.2 -0.6,0.4 -0.2,0.2 -0.3,0.3 -0.4,0.5 -0.1,0.2 -0.1,0.4 -0.1,0.6 z" /></g><g
               transform="matrix(1.0202,0,0,-1.0202,-6.0216,850.3937)"
               id="g52"><path
                 id="path54"
                 style="fill:#1e1e1c;fill-opacity:1;fill-rule:nonzero;stroke:none"
                 d="m 77.4,54.1 h 2 v 10.6 h 5.1 v 1.9 h -7.1 z" /></g><g
               transform="matrix(1.0202,0,0,-1.0202,-6.0216,850.3937)"
               id="g56"><path
                 id="path58"
                 style="fill:#1e1e1c;fill-opacity:1;fill-rule:nonzero;stroke:none"
                 d="m 89.2,58.4 c 0.6,0 1.1,0.1 1.6,0.3 0.5,0.2 0.9,0.5 1.3,0.9 0.4,0.4 0.7,0.8 0.9,1.3 0.2,0.5 0.3,1.1 0.3,1.7 v 0.7 h -6 c 0,0.2 0.1,0.4 0.2,0.6 0.1,0.2 0.3,0.4 0.5,0.5 0.2,0.2 0.4,0.3 0.7,0.4 0.3,0.1 0.6,0.2 0.9,0.2 0.4,0 0.7,0 0.9,-0.1 0.3,-0.1 0.5,-0.2 0.7,-0.3 0.2,-0.1 0.4,-0.3 0.6,-0.4 l 1,1.5 -0.9,0.6 c -0.3,0.1 -0.6,0.3 -1,0.4 -0.4,0.1 -0.8,0.2 -1.3,0.2 -0.6,0 -1.2,-0.1 -1.7,-0.3 -0.5,-0.2 -1,-0.5 -1.4,-0.9 -0.4,-0.4 -0.7,-0.8 -0.9,-1.3 -0.2,-0.5 -0.3,-1.1 -0.3,-1.7 0,-0.6 0.1,-1.1 0.3,-1.7 0.2,-0.5 0.5,-1 0.8,-1.3 0.4,-0.4 0.8,-0.7 1.3,-0.9 0.3,-0.3 0.9,-0.4 1.5,-0.4 z m 2,3.5 c 0,-0.2 -0.1,-0.4 -0.1,-0.5 -0.1,-0.2 -0.2,-0.4 -0.4,-0.5 -0.2,-0.2 -0.4,-0.3 -0.6,-0.4 -0.3,-0.1 -0.5,-0.2 -0.9,-0.2 -0.3,0 -0.6,0.1 -0.9,0.2 -0.2,0.1 -0.4,0.2 -0.6,0.4 -0.2,0.2 -0.3,0.3 -0.4,0.5 -0.1,0.2 -0.1,0.4 -0.1,0.6 z" /></g><g
               transform="matrix(1.0202,0,0,-1.0202,-6.0216,850.3937)"
               id="g60"><path
                 id="path62"
                 style="fill:#1e1e1c;fill-opacity:1;fill-rule:nonzero;stroke:none"
                 d="m 102.6,58.6 v 8.1 h -1.9 v -1.1 c -0.1,0.2 -0.3,0.4 -0.6,0.6 -0.2,0.2 -0.4,0.3 -0.8,0.4 -0.3,0.1 -0.7,0.2 -1.1,0.2 -0.5,0 -1,-0.1 -1.5,-0.3 -0.5,-0.2 -0.9,-0.5 -1.3,-0.9 -0.4,-0.4 -0.6,-0.8 -0.9,-1.3 -0.2,-0.5 -0.3,-1.1 -0.3,-1.7 0,-0.6 0.1,-1.2 0.3,-1.7 0.2,-0.5 0.5,-1 0.9,-1.3 0.4,-0.4 0.8,-0.7 1.3,-0.9 0.5,-0.2 1,-0.3 1.5,-0.3 0.4,0 0.8,0.1 1.1,0.2 0.3,0.1 0.6,0.3 0.8,0.4 l 0.6,0.6 v -1.1 h 1.9 z m -2.1,2.9 c -0.1,-0.2 -0.3,-0.4 -0.5,-0.6 -0.2,-0.1 -0.4,-0.3 -0.6,-0.4 -0.2,-0.1 -0.5,-0.2 -0.9,-0.2 -0.3,0 -0.7,0.1 -0.9,0.2 -0.3,0.1 -0.5,0.3 -0.7,0.5 -0.2,0.2 -0.3,0.5 -0.4,0.7 -0.1,0.3 -0.2,0.6 -0.2,0.9 0,0.3 0,0.6 0.2,0.9 0.1,0.3 0.2,0.5 0.4,0.7 0.2,0.2 0.4,0.4 0.7,0.5 0.3,0.1 0.6,0.2 0.9,0.2 0.3,0 0.6,-0.1 0.9,-0.2 0.2,-0.1 0.4,-0.2 0.6,-0.4 0.2,-0.2 0.3,-0.3 0.5,-0.6 z" /></g><g
               transform="matrix(1.0202,0,0,-1.0202,-6.0216,850.3937)"
               id="g64"><path
                 id="path66"
                 style="fill:#1e1e1c;fill-opacity:1;fill-rule:nonzero;stroke:none"
                 d="m 108.5,58.4 h 0.5 c 0.2,0 0.3,0.1 0.4,0.1 0.1,0 0.3,0.1 0.4,0.1 l -0.7,1.8 c -0.1,0 -0.2,-0.1 -0.3,-0.1 -0.1,0 -0.2,0 -0.3,-0.1 h -0.4 c -0.3,0 -0.6,0.1 -0.8,0.2 -0.2,0.1 -0.4,0.2 -0.6,0.4 -0.2,0.2 -0.3,0.3 -0.4,0.5 v 5.3 h -2 v -8.1 h 1.9 v 1.2 c 0.1,-0.2 0.3,-0.5 0.5,-0.7 0.2,-0.2 0.4,-0.3 0.7,-0.5 0.4,0 0.8,-0.1 1.1,-0.1 z" /></g><g
               transform="matrix(1.0202,0,0,-1.0202,-6.0216,850.3937)"
               id="g68"><path
                 id="path70"
                 style="fill:#1e1e1c;fill-opacity:1;fill-rule:nonzero;stroke:none"
                 d="m 115.3,58.4 c 0.4,0 0.8,0.1 1.1,0.2 0.4,0.1 0.7,0.3 0.9,0.6 0.3,0.3 0.5,0.6 0.7,1 0.2,0.4 0.2,0.8 0.2,1.3 v 5.2 h -2 V 62 c 0,-0.6 -0.2,-1 -0.5,-1.3 -0.3,-0.3 -0.7,-0.4 -1.1,-0.4 -0.3,0 -0.5,0.1 -0.7,0.2 -0.2,0.1 -0.4,0.2 -0.5,0.4 -0.2,0.1 -0.3,0.3 -0.4,0.5 v 5.3 h -2 v -8.1 h 1.9 v 1.2 c 0.1,-0.2 0.3,-0.5 0.6,-0.7 0.2,-0.2 0.4,-0.3 0.7,-0.5 0.3,-0.1 0.7,-0.2 1.1,-0.2 z" /></g><g
               transform="matrix(1.0202,0,0,-1.0202,-6.0216,850.3937)"
               id="g72"><path
                 id="path74"
                 style="fill:#d7007f;fill-opacity:1;fill-rule:nonzero;stroke:none"
                 d="m 70.4,38 v 9.5 h -9.1 v 8.4 h -9.2 v 8.4 h -9.5 v 2.4 h 11.9 v -8.4 h 9.2 V 50 h 9.1 V 38 Z" /></g><g
               transform="matrix(1.0202,0,0,-1.0202,-6.0216,850.3937)"
               id="g76"><path
                 id="path96"
                 style="fill:url(#linearGradient94);fill-opacity:1;fill-rule:nonzero;stroke:none"
                 d="m 311.8,0 h -28.3 v 265.1 l 14.1,-14.2 14.2,14.2 z" /></g><g
               transform="matrix(1.0202,0,0,-1.0202,-6.0216,850.3937)"
               id="g98"><path
                 id="path100"
                 style="fill:#ffffff;fill-opacity:1;fill-rule:nonzero;stroke:none"
                 d="m 299.9,234.1 c 0,1.2 -1,2.2 -2.3,2.2 -1.3,0 -2.3,-1 -2.3,-2.2 0,-1.2 1,-2.2 2.3,-2.2 1.3,0 2.3,1 2.3,2.2 m -5.7,0 c 0,1.9 1.6,3.4 3.5,3.4 1.9,0 3.5,-1.5 3.5,-3.4 0,-1.9 -1.5,-3.4 -3.5,-3.4 -2,0 -3.5,1.5 -3.5,3.4" /></g><g
               transform="matrix(1.0202,0,0,-1.0202,-6.0216,850.3937)"
               id="g102"><path
                 id="path104"
                 style="fill:#ffffff;fill-opacity:1;fill-rule:nonzero;stroke:none"
                 d="m 301.5,243.5 -3.3,-1.6 -0.5,-0.2 -0.5,0.2 -3.3,1.6 v -3.9 c 1.1,0.7 2.4,1.2 3.8,1.2 1.4,0 2.8,-0.4 3.8,-1.2 z m 2.9,-10.2 h -1.2 c 0,0.3 0.1,0.5 0.1,0.8 0,3 -2.5,5.5 -5.6,5.5 -3.1,0 -5.6,-2.5 -5.6,-5.5 0,-3 2.5,-5.5 5.6,-5.5 1.5,0 2.9,0.6 3.9,1.6 h 1.5 c -1.2,-1.7 -3.2,-2.8 -5.5,-2.8 -3.7,0 -6.8,3 -6.8,6.7 0,1.7 0.7,3.3 1.7,4.5 v 6.7 l 5,-2.3 5,2.3 v -6.7 c 1.1,-1.2 1.7,-2.8 1.7,-4.5 0.2,-0.2 0.2,-0.5 0.2,-0.8" /></g><g
               transform="matrix(1.0202,0,0,-1.0202,-6.0216,850.3937)"
               id="g106"><path
                 id="path126"
                 style="fill:url(#linearGradient124);fill-opacity:1;fill-rule:nonzero;stroke:none"
                 d="m 283.5,690.1 h 28.3 v 151.8 h -28.3 z" /></g><g
               transform="matrix(1.0202,0,0,-1.0202,-6.0216,850.3937)"
               id="g128"><path
                 id="path130"
                 style="fill:#ffffff;fill-opacity:1;fill-rule:nonzero;stroke:none"
                 d="m 307.3,693.7 v 7.2 h -6.9 v 6.4 h -6.9 v 6.3 h -7.2 v 1.8 h 9 v -6.3 h 7 v -6.3 h 6.8 v -9.1 z" /></g></g></g></g></g><text
       id="text134"
       style="font-variant:normal;font-weight:bold;font-size:14px;font-family:Europa;-inkscape-font-specification:Europa-Bold;writing-mode:lr-tb;fill:#d9058d;fill-opacity:1;fill-rule:nonzero;stroke:none"
       transform="matrix(1,0,0,-1,211.8248,557.6722)"><tspan
         id="tspan132"
         y="0"
         x="0 9.4639997 16.926001 22.344 28.167999 32.060001 40.208 47.166 54.669998 60.493999 67.956001 72.071999 79.940002 85.134003 89.25 98.741997 105.7 113.568 117.46 124.67 131.502 138.964 150.668 158.13 165.802">Certifcate of Achievement</tspan></text>
<g
       id="g136"><g
         clip-path="url(#clipPath142)"
         id="g138"><g
           transform="matrix(1.8877,0,0,-1.8877,181.6718,490.2259)"
           id="g144"><text
             id="text148"
             style="font-variant:normal;font-weight:bold;font-size:16px;font-family:Europa;-inkscape-font-specification:Europa-Bold;writing-mode:lr-tb;fill:#000000;fill-opacity:1;fill-rule:nonzero;stroke:none"><tspan
               id="tspan146"
               y="0"
               x="0 8 16.768 25.344 34.112 42.688 47.391998 57.216 61.664001 70.192001 74.639999 80.639999 89.216003 93.919998 101.92 106.368 115.136">Luana Vieira Lins</tspan></text>
</g></g></g><text
       id="text152"
       style="font-variant:normal;font-weight:normal;font-size:10px;font-family:Europa;-inkscape-font-specification:Europa-Regular;writing-mode:lr-tb;fill:#697279;fill-opacity:1;fill-rule:nonzero;stroke:none"
       transform="matrix(1,0,0,-1,219.2378,462.7242)"><tspan
         id="tspan150"
         y="0"
         x="0 5.4000001 10.52 15.07 17.870001 22.639999 28.040001 35.799999 41.330002 43.810001 49.009998 52.77 57.970001 63.68 66.480003 70.239998 75.639999 80.839996 83.639999 86.949997 92.349998 94.830002 97.309998 102.63 110.05 112.47 117.69 123.22 126.02 130.78999 136.19 141.41 144.69 149.24001 154.44">has completed the following course:</tspan></text>
<text
       id="text156"
       style="font-variant:normal;font-weight:bold;font-size:10px;font-family:Europa;-inkscape-font-specification:Europa-Bold;writing-mode:lr-tb;fill:#231f20;fill-opacity:1;fill-rule:nonzero;stroke:none"
       transform="matrix(1,0,0,-1,210.6828,440.1337)"><tspan
         id="tspan154"
         y="0"
         x="0 5.9000001 12.68 18.629999 21.59 28.35 31.290001 36.75 44.009998 51.139999 56.139999 59.099998 65.050003 71.919998 74.860001 80.410004 83.150002 86.089996 91.75 97.580002 103.04 106.37 109.33 116.59 121.93 127.39 133.22 141.48 146.94 153.74001 156.7 163.11 168.45">BASIC ENGLISH 2: PRE-INTERMEDIATE</tspan></text>
<text
       id="text160"
       style="font-variant:normal;font-weight:bold;font-size:10px;font-family:Europa;-inkscape-font-specification:Europa-Bold;writing-mode:lr-tb;fill:#697279;fill-opacity:1;fill-rule:nonzero;stroke:none"
       transform="matrix(1,0,0,-1,236.7728,426.1337)"><tspan
         id="tspan158"
         y="0"
         x="0 6.2800002 9.2399998 16.5 23.629999 25.49 31.440001 34.380001 41.139999 48.900002 53.900002 58.900002 64.360001 71.489998 76.949997 79.889999 84.889999 92.650002 99.910004 106.71 114.47">KING'S COLLEGE LONDON</tspan></text>
<text
       id="text164"
       style="font-variant:normal;font-weight:normal;font-size:10px;font-family:Europa;-inkscape-font-specification:Europa-Regular;writing-mode:lr-tb;fill:#697279;fill-opacity:1;fill-rule:nonzero;stroke:none"
       transform="matrix(1,0,0,-1,80.0378,405.047)"><tspan
         id="tspan162"
         y="0"
         x="0 5.1399999 10.54 12.96 17.51 20.309999 25.709999 30.93 33.41 35.830002 41.049999 46.25 49.049999 53.82 59.220001 64.440002 67.720001 72.269997 77.470001 80.269997 85.669998 90.870003 93.349998 98.879997 104.08 109.79 112.59 117.51 122.91 128.13 130.92999 134.69 140.09 142.89 148.60001 153.8 161.56 166.96001 172.17999 176.73 180.49001 183.77 188.89 192.64999 197.85001 200.64999 205.87 211.09 216.8 222 225.28 229.83 233.59 238.71001 243.92999 249.64 252.06 257.28 262.81 265.60999 271.01001 274.44 277.23999 279.72 284.84 290.06 295.59 300.81 305.92999 311.45999 316.66 319.45999 323.22 328.62 333.73999 337.5 340.29999 345.07001 350.19 355.41 358.20999 363.60999 368.81 371.29001 376.82001 379.62 384.54001 389.94 395.16 397.95999 403.48999 406.73001 412.13 417.66 420.89999 426.10001 430.64999">This online course helped you to demonstrate understanding of language that can help you progress</tspan></text>
<text
       id="text168"
       style="font-variant:normal;font-weight:normal;font-size:10px;font-family:Europa;-inkscape-font-specification:Europa-Regular;writing-mode:lr-tb;fill:#697279;fill-opacity:1;fill-rule:nonzero;stroke:none"
       transform="matrix(1,0,0,-1,206.8778,391.047)"><tspan
         id="tspan166"
         y="0"
         x="0 5.1199999 7.5999999 13 18.219999 23.75 26.549999 30.309999 35.709999 40.91 43.709999 49.240002 54.360001 58.119999 63.52 66.32 70.080002 75.480003 78.279999 82.830002 86.589996 91.809998 97.519997 102.52 104.94 110.16 115.69 118.49 123.61 127.37 130.17 135.28999 138.09 143.31 148.53 150.95 155.55 160.75 164.03 168.58 171 174.75999 179.22">along the path to studying at a university.</tspan></text>
<text
       id="text172"
       style="font-variant:normal;font-weight:normal;font-size:10px;font-family:Europa;-inkscape-font-specification:Europa-Regular;writing-mode:lr-tb;fill:#697279;fill-opacity:1;fill-rule:nonzero;stroke:none"
       transform="matrix(1,0,0,-1,239.9778,368.5431)"><tspan
         id="tspan170"
         y="0"
         x="0 5.6199999 8.4200001 15.76 20.959999 26.16 31 35.549999 37.84 40.639999 46.259998 49.060001 54.459999 59.860001 65.080002 68.360001 72.910004 75.709999 81.239998 86.440002 89.839996 92.639999 99.980003 105.18 110.38">4 weeks, 4 hours per week</tspan></text>
<g
       id="g174"><g
         clip-path="url(#clipPath180)"
         id="g176"><g
           transform="matrix(0.0057811,0,0,0.0057811,238.9225,313.9196)"
           id="g182"><path
             id="path184"
             style="fill:#000000;fill-opacity:1;fill-rule:nonzero;stroke:none"
             d="m 5429,6617 c -92,-53 -141,-103 -187,-192 -21,-40 -33,-56 -115,-147 -49,-54 -107,-133 -107,-146 0,-5 -9,-17 -21,-28 -12,-10 -34,-44 -50,-74 -36,-67 -59,-106 -114,-190 -23,-36 -61,-101 -85,-145 -24,-44 -53,-93 -65,-110 -12,-16 -30,-50 -40,-75 -10,-25 -38,-74 -61,-110 -23,-36 -96,-171 -162,-300 -66,-129 -127,-248 -135,-265 -15,-29 -44,-92 -66,-145 -6,-14 -15,-32 -20,-40 -5,-8 -18,-35 -30,-59 -12,-24 -27,-55 -35,-70 -8,-14 -22,-46 -32,-71 -10,-25 -26,-64 -36,-87 -10,-23 -18,-44 -18,-47 0,-3 -14,-36 -31,-72 -16,-37 -36,-83 -44,-103 -126,-340 -138,-362 -200,-394 -136,-70 -281,-110 -366,-100 -39,4 -98,35 -125,65 -36,40 -45,102 -38,290 7,191 4,203 -51,214 -22,4 -37,0 -53,-13 -20,-16 -24,-32 -33,-148 -6,-71 -14,-146 -19,-166 -10,-34 -124,-219 -172,-274 -48,-58 -174,-182 -208,-205 -19,-14 -45,-34 -58,-44 -21,-19 -117,-74 -202,-116 -66,-34 -150,-52 -214,-48 -52,3 -66,8 -92,34 -46,45 -56,88 -55,229 1,157 14,223 44,227 33,5 35,45 4,57 -31,12 -93,-15 -103,-44 -4,-11 -11,-23 -17,-26 -20,-13 -31,-107 -31,-259 0,-139 3,-160 23,-201 29,-61 65,-93 131,-118 86,-33 223,-22 325,24 17,8 43,19 59,24 15,6 51,26 80,45 28,18 80,51 116,74 36,22 72,47 80,55 8,8 38,34 65,57 71,61 170,173 221,253 24,37 48,67 54,67 5,0 16,-13 24,-28 26,-49 93,-97 170,-122 60,-19 88,-22 157,-18 76,5 210,40 261,68 10,6 22,10 28,10 13,0 13,-35 1,-58 -5,-9 -19,-76 -30,-147 -48,-301 -8,-541 129,-766 61,-101 86,-133 140,-184 23,-22 52,-51 64,-63 11,-13 38,-33 59,-43 20,-11 37,-23 37,-27 0,-8 111,-57 179,-80 50,-17 91,10 59,38 -7,6 -56,39 -109,73 -205,133 -247,181 -366,419 -29,60 -53,135 -69,218 -3,14 -10,47 -16,73 -17,77 8,324 48,487 l 34,135 54,50 c 29,28 82,72 117,100 79,61 307,290 374,376 27,35 63,77 78,93 16,16 47,55 70,85 37,51 77,102 110,141 8,8 22,31 34,50 11,19 42,71 70,115 27,44 52,87 56,95 7,14 43,80 79,145 10,17 40,80 69,140 28,61 69,146 90,190 22,45 39,84 39,88 0,5 24,58 54,120 50,105 70,155 133,332 14,39 29,75 33,80 5,6 22,51 38,100 17,50 47,134 66,189 20,54 36,108 36,120 0,11 14,61 30,110 29,87 40,186 22,212 -12,18 -49,34 -79,34 -15,0 -53,-15 -84,-33 z m 17,-172 c 6,-15 -25,-117 -74,-245 -13,-36 -27,-83 -30,-105 -2,-22 -13,-57 -23,-77 -11,-21 -19,-46 -19,-57 0,-11 -9,-36 -20,-56 -11,-20 -20,-40 -20,-45 0,-6 -11,-33 -25,-62 -14,-28 -25,-57 -25,-63 0,-6 -12,-36 -26,-66 -15,-29 -34,-72 -44,-94 -41,-94 -73,-162 -88,-185 -19,-29 -39,-77 -54,-135 -6,-22 -14,-42 -18,-45 -4,-3 -15,-27 -25,-55 -11,-27 -35,-79 -54,-115 -19,-36 -50,-94 -68,-130 -42,-81 -103,-182 -118,-195 -6,-5 -31,-39 -55,-75 -23,-36 -59,-85 -79,-110 -20,-25 -48,-61 -61,-80 -13,-19 -33,-44 -44,-56 -12,-11 -48,-51 -81,-89 -168,-193 -347,-377 -357,-367 -5,5 2,34 16,67 15,32 26,61 26,66 0,4 15,40 33,81 18,40 41,93 52,118 10,25 33,77 51,115 18,39 51,113 74,165 43,96 126,273 141,300 8,14 18,35 72,150 11,25 31,61 43,80 12,19 32,60 45,90 12,30 30,66 40,80 9,14 52,93 95,175 43,83 84,156 91,163 8,8 20,28 27,46 7,17 19,38 27,46 8,8 25,35 38,60 13,25 35,58 48,73 13,16 23,34 23,41 0,7 9,21 20,31 11,10 20,23 20,28 0,6 23,43 50,84 28,40 50,78 50,83 0,6 4,10 9,10 5,0 20,17 32,38 13,20 42,62 65,93 23,30 52,74 64,97 20,38 124,142 143,142 4,0 10,-7 13,-15 z" /></g><g
           transform="matrix(0.0057811,0,0,0.0057811,238.9225,313.9196)"
           id="g186"><path
             id="path188"
             style="fill:#000000;fill-opacity:1;fill-rule:nonzero;stroke:none"
             d="m 9687,5574 c -2,-2 -30,-9 -63,-15 -71,-12 -236,-63 -281,-87 -18,-9 -63,-32 -100,-51 -67,-34 -173,-129 -218,-196 -11,-16 -29,-39 -40,-50 -47,-48 -58,-80 -77,-210 -21,-140 -18,-235 7,-235 26,0 44,51 65,180 5,30 13,63 18,75 64,138 80,165 130,214 143,139 404,251 586,251 118,0 256,-56 379,-154 10,-7 28,-52 41,-99 13,-47 27,-90 31,-96 4,-7 6,-76 6,-155 -1,-160 -9,-192 -80,-333 -54,-108 -105,-188 -155,-242 -38,-41 -157,-141 -221,-186 -36,-25 -104,-83 -130,-111 -31,-33 -144,-104 -166,-104 -46,0 -85,26 -96,66 -16,53 -30,143 -38,236 -6,70 -10,80 -41,112 -19,20 -43,36 -54,36 -39,0 -63,-67 -40,-110 6,-11 12,-65 15,-122 3,-57 6,-116 8,-133 2,-29 1,-30 -58,-37 -71,-9 -192,-37 -220,-51 -11,-5 -28,-18 -38,-28 -10,-11 -26,-19 -36,-19 -10,0 -26,-9 -35,-19 -10,-10 -32,-22 -50,-25 -17,-3 -47,-19 -66,-35 -29,-24 -36,-38 -46,-97 -17,-97 -17,-99 15,-134 25,-28 39,-34 102,-42 72,-11 77,-10 182,25 101,34 167,60 245,94 43,19 59,12 67,-29 26,-132 132,-410 181,-473 29,-39 67,-47 82,-17 12,23 -12,161 -38,214 -11,23 -20,47 -20,52 0,6 -6,22 -13,36 -23,45 -76,247 -77,292 0,38 86,79 104,49 3,-5 65,-39 138,-76 125,-63 140,-74 248,-181 135,-132 131,-129 195,-174 59,-41 92,-68 160,-133 112,-107 267,-186 385,-195 58,-4 68,-8 92,-37 41,-49 91,-68 173,-68 83,1 136,14 224,56 81,38 130,71 150,100 8,12 17,24 21,27 9,8 37,53 70,115 96,178 65,320 -91,413 -41,25 -154,31 -191,11 -11,-6 -63,-16 -117,-23 -109,-15 -273,-64 -364,-111 -50,-26 -62,-36 -62,-56 0,-21 4,-24 35,-21 19,2 40,9 45,16 6,7 24,16 40,19 17,3 50,11 75,16 25,6 70,15 100,22 30,6 78,16 105,23 68,16 270,-2 308,-27 33,-21 44,-72 27,-124 -26,-77 -88,-199 -116,-225 -49,-46 -175,-98 -242,-101 -102,-4 -116,35 -56,156 48,94 75,128 128,162 49,31 60,52 40,79 -19,26 -70,14 -132,-32 -56,-40 -190,-232 -202,-287 -6,-27 -9,-30 -41,-27 -49,5 -177,76 -235,131 -59,56 -177,164 -224,206 -19,17 -59,46 -87,64 -29,19 -53,38 -53,42 0,17 -170,178 -227,214 -117,75 -131,83 -167,95 -45,14 -54,29 -30,46 60,42 348,278 389,319 17,16 42,39 56,50 38,30 181,239 222,325 56,118 62,148 61,325 0,136 -3,171 -22,237 -28,95 -68,188 -90,208 -30,27 -80,60 -92,60 -6,0 -26,11 -43,24 -36,26 -162,76 -193,76 -12,0 -34,4 -50,9 -32,10 -121,21 -127,15 z M 9188,3888 c 17,-17 15,-53 -5,-69 -39,-33 -224,-114 -308,-135 -85,-22 -126,-23 -152,-2 -16,12 68,98 127,129 25,13 51,30 58,36 7,7 39,20 70,29 31,8 62,17 67,19 26,9 132,4 143,-7 z" /></g><g
           transform="matrix(0.0057811,0,0,0.0057811,238.9225,313.9196)"
           id="g190"><path
             id="path192"
             style="fill:#000000;fill-opacity:1;fill-rule:nonzero;stroke:none"
             d="m 6348,4596 c -64,-23 -88,-44 -88,-75 0,-35 14,-47 60,-54 19,-3 51,-9 70,-14 40,-11 121,5 128,25 2,6 -5,24 -16,40 -11,15 -22,41 -24,57 -3,28 -6,30 -48,32 -25,2 -62,-4 -82,-11 z" /></g><g
           transform="matrix(0.0057811,0,0,0.0057811,238.9225,313.9196)"
           id="g194"><path
             id="path196"
             style="fill:#000000;fill-opacity:1;fill-rule:nonzero;stroke:none"
             d="m 13305,4185 c -60,-21 -118,-88 -138,-160 -10,-33 -24,-79 -31,-101 -26,-76 10,-448 60,-623 14,-50 14,-55 -3,-75 -52,-62 -106,-106 -159,-131 -32,-15 -72,-38 -89,-50 -80,-59 -198,-90 -244,-66 -28,15 -27,27 7,61 29,29 72,137 72,181 0,36 -20,57 -61,64 -31,6 -41,2 -72,-24 -21,-19 -42,-52 -53,-82 -19,-52 -86,-124 -144,-154 -59,-31 -290,-85 -361,-85 -53,0 -132,25 -173,54 -71,52 -116,167 -116,298 v 58 h 34 c 19,0 37,4 40,9 8,12 -14,132 -31,164 -7,15 -19,27 -26,27 -6,0 -21,3 -32,6 -28,7 -62,-24 -79,-73 -8,-21 -17,-91 -21,-155 -8,-134 6,-214 58,-311 34,-65 79,-108 158,-151 46,-24 71,-30 171,-37 76,-6 126,-5 143,1 15,6 30,8 35,5 12,-8 219,63 247,85 36,28 59,25 105,-14 91,-78 219,-68 413,33 65,34 136,75 158,91 52,38 63,29 76,-65 18,-120 24,-111 -78,-119 -67,-6 -95,-12 -112,-27 -12,-10 -26,-19 -30,-19 -5,0 -19,-19 -31,-42 -20,-38 -23,-56 -22,-154 3,-180 28,-239 130,-304 53,-33 99,-38 166,-18 103,31 184,213 156,351 -6,27 -8,50 -6,53 3,2 40,-1 84,-6 127,-17 400,-15 464,3 30,8 82,18 114,21 33,4 64,10 70,15 6,5 32,12 58,15 48,7 225,74 308,116 92,46 202,175 221,258 18,81 -17,177 -80,219 -50,34 -154,63 -225,63 -124,-1 -303,-41 -394,-90 -20,-11 -42,-20 -50,-20 -7,0 -29,-10 -50,-23 -20,-12 -59,-34 -85,-47 -64,-33 -210,-173 -241,-232 -22,-42 -26,-88 -6,-88 4,0 23,12 43,28 132,102 207,159 237,183 36,28 119,66 270,124 57,21 112,34 168,39 74,7 91,5 165,-20 92,-30 117,-47 117,-80 0,-31 -18,-75 -38,-95 -9,-9 -28,-31 -42,-48 -14,-17 -30,-31 -37,-31 -6,0 -13,-3 -15,-7 -8,-20 -184,-94 -278,-118 -226,-59 -323,-75 -485,-82 -154,-6 -272,7 -304,35 -26,24 -53,166 -56,292 -3,112 2,126 69,197 42,43 106,190 151,343 46,157 57,282 31,365 -24,75 -93,137 -183,165 -76,23 -67,23 -118,5 z m 126,-138 c 47,-32 59,-61 59,-147 0,-59 -8,-99 -35,-185 -20,-60 -40,-126 -46,-145 -18,-55 -90,-181 -102,-177 -15,5 -24,44 -42,175 -8,63 -20,132 -26,155 -12,45 -5,172 12,242 13,51 71,104 115,105 17,0 46,-10 65,-23 z m -158,-1312 c 19,-8 37,-84 37,-157 0,-88 -35,-174 -81,-198 -14,-8 -28,-7 -53,5 -55,26 -79,59 -88,123 -5,31 -11,73 -14,92 -6,40 15,99 48,132 18,18 28,20 78,15 31,-4 64,-9 73,-12 z" /></g><g
           transform="matrix(0.0057811,0,0,0.0057811,238.9225,313.9196)"
           id="g198"><path
             id="path200"
             style="fill:#000000;fill-opacity:1;fill-rule:nonzero;stroke:none"
             d="m 5850,3995 c -88,-91 -346,-173 -495,-158 -51,5 -55,4 -66,-20 -10,-21 -9,-37 5,-79 9,-30 21,-100 26,-158 7,-86 6,-110 -7,-140 -8,-19 -19,-48 -24,-65 -23,-84 -59,-175 -88,-219 -17,-28 -31,-54 -31,-58 0,-12 -46,-54 -84,-77 -17,-10 -66,-33 -110,-51 -71,-30 -85,-32 -148,-27 -87,7 -126,30 -155,87 -27,52 -29,92 -7,167 14,48 31,82 97,188 31,50 110,155 117,155 4,0 18,16 31,36 22,32 39,45 132,96 33,18 55,14 37,-7 -8,-10 -4,-18 15,-34 63,-49 105,-30 105,48 0,64 -28,107 -80,122 -35,11 -45,10 -70,-4 -15,-9 -38,-17 -50,-17 -30,0 -107,-39 -139,-70 -39,-38 -81,-89 -81,-98 0,-4 -17,-26 -37,-48 -55,-58 -75,-89 -131,-200 -111,-219 -107,-352 15,-466 32,-30 136,-66 203,-69 94,-6 203,30 311,102 87,59 185,179 218,269 8,19 19,49 27,66 7,17 20,55 28,85 8,30 20,69 27,87 8,23 10,75 7,158 l -5,124 h 26 c 25,0 127,21 204,43 56,16 57,25 -17,-139 -20,-44 -42,-102 -50,-130 -8,-27 -22,-76 -31,-109 -30,-105 -4,-195 71,-248 35,-24 53,-29 131,-34 70,-4 103,-2 141,10 27,9 76,20 108,23 33,4 83,15 113,26 75,25 101,24 101,-4 0,-33 11,-45 55,-63 48,-21 90,-15 229,30 187,62 309,66 497,19 46,-12 63,-12 95,-2 53,18 66,47 60,132 -8,111 -50,128 -75,31 -6,-25 -17,-45 -24,-45 -7,0 -45,9 -85,20 -50,14 -103,20 -179,20 -100,1 -106,2 -77,14 42,18 178,156 203,204 29,56 45,191 30,242 -20,65 -52,86 -150,93 -86,7 -129,-5 -129,-36 0,-7 -40,-55 -90,-106 -90,-93 -208,-241 -234,-296 -30,-63 -66,-84 -182,-111 -60,-14 -145,-35 -189,-46 -174,-44 -239,-46 -282,-5 -15,13 -23,32 -23,53 0,43 20,136 31,148 5,6 9,18 9,28 0,10 11,41 25,70 14,28 25,58 25,65 0,20 98,191 147,254 54,72 67,103 51,129 -26,42 -85,39 -128,-5 z m 992,-326 c -7,-117 -131,-235 -292,-278 -101,-27 -98,-30 -47,33 26,32 47,61 47,64 1,10 129,141 173,177 43,35 98,65 112,61 6,-1 9,-26 7,-57 z" /></g><g
           transform="matrix(0.0057811,0,0,0.0057811,238.9225,313.9196)"
           id="g202"><path
             id="path204"
             style="fill:#000000;fill-opacity:1;fill-rule:nonzero;stroke:none"
             d="m 15301,3314 c -34,-14 -70,-46 -187,-166 -31,-31 -66,-59 -79,-62 -13,-3 -27,-16 -31,-29 -4,-12 -21,-38 -39,-58 -42,-46 -51,-75 -34,-105 23,-44 89,-45 89,-1 0,13 14,37 33,55 40,40 117,102 125,102 4,1 41,32 82,70 109,103 124,103 146,3 7,-32 17,-74 22,-93 14,-57 59,-135 91,-163 49,-41 161,-90 218,-95 51,-4 170,12 201,27 10,5 37,18 62,30 25,12 79,46 120,76 41,29 80,54 87,54 8,1 12,-26 12,-84 1,-88 6,-107 48,-162 28,-39 74,-53 172,-54 62,-1 78,3 138,35 37,20 70,36 74,36 3,0 11,-17 17,-39 23,-75 112,-133 204,-132 95,0 348,77 348,105 0,38 -46,44 -155,20 -155,-34 -187,-36 -225,-19 -74,33 -92,121 -41,191 15,22 61,73 102,114 111,112 155,183 145,233 -9,46 -24,57 -76,57 -43,0 -53,-4 -93,-44 -25,-24 -55,-62 -67,-85 -11,-23 -36,-62 -55,-87 -19,-25 -35,-51 -35,-58 0,-17 -111,-121 -153,-144 -18,-9 -46,-27 -64,-39 -36,-27 -82,-29 -124,-7 l -31,15 4,148 c 3,127 1,150 -15,174 -21,32 -57,43 -89,26 -24,-13 -124,-85 -145,-106 -7,-6 -29,-21 -50,-34 -21,-12 -48,-32 -60,-44 -12,-12 -47,-34 -77,-49 -50,-25 -63,-28 -138,-24 -71,3 -90,8 -130,33 -31,20 -52,43 -62,68 -32,76 -46,114 -62,172 -17,62 -34,94 -68,133 -15,17 -30,22 -70,22 -28,-1 -66,-7 -85,-16 z" /></g><g
           transform="matrix(0.0057811,0,0,0.0057811,238.9225,313.9196)"
           id="g206"><path
             id="path208"
             style="fill:#000000;fill-opacity:1;fill-rule:nonzero;stroke:none"
             d="m 18185,2787 c -14,-11 -16,-21 -11,-53 9,-45 21,-63 53,-75 30,-11 68,4 88,35 14,21 15,31 5,60 -6,19 -18,37 -26,40 -28,11 -90,6 -109,-7 z" /></g></g></g><text
       id="text212"
       style="font-variant:normal;font-weight:bold;font-size:8px;font-family:Europa;-inkscape-font-specification:Europa-Bold;writing-mode:lr-tb;fill:#231f20;fill-opacity:1;fill-rule:nonzero;stroke:none"
       transform="matrix(1,0,0,-1,270.4098,314.7384)"><tspan
         id="tspan210"
         y="0"
         x="0 6.6079998 11.104 13.328 17.615999 19.968 24.632 29 35.144001 39.007999 43.504002 50.192001">Moia Rowsome</tspan></text>
<text
       id="text216"
       style="font-variant:normal;font-weight:normal;font-size:8px;font-family:Europa;-inkscape-font-specification:Europa-Regular;writing-mode:lr-tb;fill:#565d63;fill-opacity:1;fill-rule:nonzero;stroke:none"
       transform="matrix(1,0,0,-1,259.6098,304.7384)"><tspan
         id="tspan214"
         y="0"
         x="0 2.2079999 6.3839998 10.024 13.032 15.752 19.927999 23.743999 26.752001 28.688 33.007999 37.183998 41.279999 43.264 45.504002 50.84 55 58.639999 60.576 65 69.176003 73.335999">Instructional Designer</tspan></text>
<text
       id="text220"
       style="font-variant:normal;font-weight:normal;font-size:8px;font-family:Europa;-inkscape-font-specification:Europa-Regular;writing-mode:lr-tb;fill:#565d63;fill-opacity:1;fill-rule:nonzero;stroke:none"
       transform="matrix(1,0,0,-1,259.5178,294.9384)"><tspan
         id="tspan218"
         y="0"
         x="0 4.7119999 6.6479998 10.824 15.248 16.32 19.959999 22.200001 27.504 31.823999 33.807999 35.792 39.952 44.375999 48.535999 50.776001 54.68 59 63.175999 67.744003 72.064003">King's College London</tspan></text>
<g
       transform="rotate(-90,576.85035,803.62205)"
       id="g222"><text
         id="text226"
         style="font-variant:normal;font-weight:normal;font-size:8px;font-family:Europa;-inkscape-font-specification:Europa-Regular;writing-mode:lr-tb;fill:#697279;fill-opacity:1;fill-rule:nonzero;stroke:none"
         transform="matrix(1,0,0,-1,576.8504,795.962)"><tspan
           id="tspan224"
           y="0"
           x="0 2.2079999 5.848 9.4879999 13.664 17.823999 22.392 24.632 28.888 33.240002 35.832001 40.400002 42.639999 46.639999 50.799999 55.368 58.088001 62.264 66.360001 69.080002 73.080002 75.32 79.575996 84.311996 88.568001 91.807999 93.648003 95.888 98.632004 102.808 105.816 109.992 112.584 116.744 118.728 122.888 126.984 129.70399 133.88 135.72 139.536 143.856 150.064 154.03999 157.856 162.01601 164.73599 167.744 169.67999 173.98399 177.8 181.896 184.90401 189.064 192.70399 196.67999 201.032 205.60001 209.92 214.24001 218.592 224.8">Issued 23rd February 2021. futurelearn.com/certifcates/3boh3mk</tspan></text>
</g><g
       id="g228"><g
         clip-path="url(#clipPath234)"
         id="g230"><g
           transform="matrix(0.0972,0,0,-0.0972,265.8281,238.3937)"
           id="g236"><path
             id="path238"
             style="fill:#f7323f;fill-opacity:1;fill-rule:nonzero;stroke:none"
             d="M 0,0 H 654.8 V 498.9 H 0 Z" /></g><g
           transform="matrix(0.0972,0,0,-0.0972,265.8281,238.3937)"
           id="g240"><path
             id="path242"
             style="fill:#ffffff;fill-opacity:1;fill-rule:nonzero;stroke:none"
             d="m 192.5,96.6 c 0,-2.7 -1.1,-5.4 -4.7,-6.7 -3,-1.1 -5.7,-1.4 -8.7,-1.9 -4.3,-0.7 -3.5,-4.9 0.4,-4.9 2.5,0 14.4,0.9 28.6,0.9 8.2,0 20,-0.4 25.7,-0.7 3.6,-0.2 4,3.6 1.5,4.3 -2.5,0.7 -14.3,3.6 -35.5,22.9 -21.8,20.1 -50,49.8 -50,49.8 0,0 63.2,75.4 74.3,84.4 11.4,9.3 19.3,10 27.9,10.7 2.2,0.1 2.9,4.3 0,4.3 h -49.4 c 0,0 -61.2,-74 -71.2,-80.8 -1.8,-1.1 -6.1,-2.5 -6.5,2.5 -0.4,4.7 -0.7,43.9 0.4,52.5 1.1,8.6 4.7,21.1 25,21.1 2.5,0 4,4.8 0.4,4.7 -12.1,-0.6 -21.1,-0.6 -36,-0.6 -12.9,0 -30.9,0.6 -33.4,0.6 -4.3,0 -4.3,-4 -0.3,-4.3 5.7,-0.4 19.3,-1.1 20.1,-22.9 0.9,-22.6 0.4,-117.5 0,-127.9 -0.1,-7.2 -6.2,-16.8 -21.9,-16.8 -2.5,0 -2.2,-4.3 0.7,-4.3 h 67.3 c 2.5,0 4,4.2 -0.3,4.6 -4.3,0.3 -20.7,0.8 -21.1,22.6 -0.6,21.9 -0.6,55.7 -0.6,57.2 0,1.8 0.7,3.6 3.2,1.8 7.8,-5.3 30.8,-27.8 48,-47.1 6.8,-7.6 11.4,-14.3 14.7,-20.5 0.7,-1.4 1.4,-3.3 1.4,-5.5 z m 84.7,60.5 V 96.4 c 0,-7.5 5.4,-9.7 11.1,-10 2.2,0 2.5,-2.9 -0.4,-2.9 h -35.8 c -2.5,0 -2.9,2.8 -0.3,2.9 5.4,0.6 11.8,3.2 11.8,10 v 60.7 c 0,6.8 -2.5,11.1 -10.4,11.1 -3.1,0 -2.4,2.6 0,2.6 h 35.1 c 1.8,0 2.3,-2.6 -0.7,-2.6 -7.5,0 -10.4,-5 -10.4,-11.1 z m 46.2,52.5 c 0.7,0 1.2,-0.4 1.4,-1.1 l 5.7,-18.3 c 0.4,-1.1 -0.1,-1.8 -1.1,-1.8 -0.4,0 -0.9,0.1 -1.2,0.5 -1.1,1.1 -2.4,2.2 -3.4,2.2 -0.6,0 -1.1,-0.4 -1.7,-0.9 -5.1,-6.3 -13.4,-7.3 -17.3,-7.3 -18.2,0 -34,11.9 -43.3,26.6 -5.6,8.7 -8.5,18.3 -8.5,27.7 0,15 10.4,23.5 24,23.5 6.1,0 10.7,-0.7 19,-4.2 1.8,-0.7 3.8,-1.6 5,-1.6 2,0 2.2,3 2.4,5.7 0,1.1 0.7,1.4 1.4,1.4 0.5,0 1.1,-0.2 1.4,-1.1 l 7.6,-21.9 c 0.6,-1.8 -0.1,-2.5 -0.8,-2.5 -1.1,0 -1.7,0.5 -2.5,1.9 -3.5,5.4 -5.9,8.8 -17.9,14.7 -5,2.4 -10.9,3.8 -15.5,3.8 -10.1,0 -14.1,-7.7 -14.1,-17.5 0,-12.9 6.1,-26.4 15.4,-37.6 6,-7.4 15,-15.7 25.7,-15.7 10.1,0 17.7,7.5 16.6,21.5 -0.1,1.4 0.7,2 1.7,2 z M 300.2,83.5 c -2.5,0 -2.5,2.5 -1.1,2.9 2.7,0.6 8.5,1.1 8.5,8.6 0.1,17.8 0.1,41 -0.6,60 -0.1,6.8 -2.2,12.5 -8,13.2 -2.2,0.1 -2.2,2.6 -0.7,2.6 h 25.8 c 1.4,0 1.9,-2.3 0.1,-2.6 -3.9,-0.7 -10.4,-0.7 -10.9,-13.2 -0.6,-12.2 -0.9,-58.2 -0.9,-58.2 l 64.7,71.9 h 5.4 c 0,0 0,-67.3 0.4,-72.4 0.4,-6 2.4,-9.2 8.8,-9.7 3.2,-0.2 2.6,-3.1 0.5,-3.1 h -26.3 c -3.1,0 -2.4,2.9 -0.9,2.9 2.9,0.3 11.8,1.4 12.2,10 0.3,12.5 0.9,51.5 0.9,51.5 L 320.6,83.5 Z m 57.5,118.9 c 11.4,0 13.6,10 13.6,19.3 0,14.8 -13.6,38.4 -30.1,38.4 -10.4,0 -14.3,-8.4 -14.3,-17 0.1,-20.5 14.8,-40.7 30.8,-40.7 z m 2.4,3.4 c -11.3,0 -27.5,26.8 -27.5,43.2 0,4.3 1.9,7.5 6.4,7.5 11.1,0 27.7,-27.5 27.7,-41.9 0,-4.3 -1.2,-8.8 -6.6,-8.8 z m 42.5,-17.9 c 0,0.3 -0.1,1.1 -0.5,1.8 -9.7,21 -19.2,41.9 -28.5,62.9 -0.5,1.1 -1.4,3.2 -1.4,4.6 0,1.8 1.3,3.3 3.2,3.3 0.9,0 2.3,-0.3 3,-0.7 5.2,-2.2 10.7,-7.9 13.9,-12.8 0.7,-1.1 -0.6,-2 -1.4,-1.3 -1.3,1.2 -5,6.2 -9,8.4 -0.7,0.3 -1.4,0.3 -0.9,-1.1 l 29.8,-66.2 c 0.5,-1.2 0.7,-1.9 0.7,-2.6 0,-0.8 -0.6,-1.2 -1.4,-1.2 -1.4,0 -3.1,0.4 -5.3,0.6 -1.8,0.1 -4.9,0.3 -7.6,0.6 -0.7,0 -1.1,0.7 -1.1,1.2 0,0.7 0.6,1.1 1.3,1.1 1.4,0 2.9,0 4.4,0.3 0.7,0.2 0.8,0.6 0.8,1.1 z m 79,-45.7 c 0,-7.3 5.4,-8 10,-8.3 1.8,-0.2 2.2,-3.1 -0.4,-3.1 h -36.1 c -2.5,0 -2.5,3.2 0,3.5 7.2,0.5 12.9,1.8 12.9,8.7 v 13 c 0,2.9 -1.4,4.9 -3,6.1 -6.3,5.3 -14.3,5.6 -19,5.6 -22.9,0 -33.2,-19.8 -33.2,-39.5 0,-16 8.1,-41.2 34.6,-41.2 23.7,0 32.3,15.4 35.2,21.2 1,1.8 3.2,1.4 3.2,0 v -19 c 0,-1.8 -2.6,-2.2 -3.2,0 -0.5,2.1 -1.9,3.6 -3.7,3.6 -1.4,0 -3.1,-1.1 -3.8,-1.6 -7.2,-4.5 -13.9,-8.1 -27.5,-8.1 -22,0 -49.1,10.9 -49.1,44.4 0,33.7 25.4,44 47.6,44 21.8,0 33.3,-11.1 35.4,-12.5 v -16.8 z m -52.4,45.7 c 0,0.3 -0.1,1.1 -0.5,1.8 -9.6,21 -19.2,41.9 -28.5,62.9 -0.5,1.1 -1.4,3.2 -1.4,4.6 0,1.8 1.3,3.3 3.2,3.3 0.9,0 2.3,-0.3 3,-0.7 5.3,-2.2 10.7,-7.9 14,-12.8 0.7,-1.1 -0.6,-2 -1.4,-1.3 -1.3,1.2 -5,6.2 -8.9,8.4 -0.7,0.3 -1.4,0.3 -1,-1.1 l 29.8,-66.2 c 0.5,-1.2 0.7,-1.9 0.7,-2.6 0,-0.8 -0.6,-1.2 -1.4,-1.2 -1.4,0 -3.1,0.4 -5.3,0.6 -1.8,0.1 -4.9,0.3 -7.6,0.6 -0.7,0 -1.1,0.7 -1.1,1.2 0,0.7 0.6,1.1 1.3,1.1 1.4,0 2.9,0 4.4,0.3 0.6,0.2 0.7,0.6 0.7,1.1 z m 34.9,59.6 c -5,6.6 -12.9,12.7 -22.7,12.7 -7.5,0 -12.1,-5.4 -12.1,-12.3 0,-21.4 23.6,-43.9 39.4,-43.9 5.4,0 9.3,2 9.3,7.8 0,8.3 -7.3,12.9 -20.4,16.8 -3.7,1.1 -11.8,2.9 -15.8,3.7 -1.8,2.9 -4,8.6 -4,13.1 0,6.1 3,9.7 8.6,9.7 6.5,0 12.5,-5 15.9,-8.9 1,-1.1 2.7,0.3 1.8,1.3 z m -7.2,-22.1 c 7.4,-2.4 14.2,-6.3 14.2,-12.9 0,-3.4 -1.7,-4.9 -5,-4.9 -4.2,0 -8.2,3.1 -10.7,5.6 -4.2,4 -8.2,8.9 -11.7,15.2 2.7,-0.2 8.2,-1.5 13.2,-3 z M 530.6,209 c 1.4,0 2.7,-0.7 2.7,-3.2 0,-2.2 -2,-2.9 -3.9,-2.9 -2.2,0 -4.9,0.6 -7.8,2.5 -0.7,0.6 -2.5,1.4 -3.6,0.7 -2.2,-1.5 -4.3,-2.6 -9.6,-2.6 -5.4,0 -13.2,3.2 -18.3,10 -3.6,5 -4.3,8.6 -4.3,12.1 0,3.6 1.4,6.2 2.5,7.6 0.2,0.4 0.4,0.6 0.4,1 0,0.8 -1.1,1.4 -2.9,1.9 -3.2,1.1 -8.6,4.2 -8.6,9.7 0,3.6 2.9,7 6.1,9.2 0,0 -6.6,1.8 -11.8,4.7 -4.1,2.2 -8.6,5.7 -8.6,10.7 0,5.7 4.9,15 25.1,15 11.8,0 19.2,-4.3 22.1,-7.5 2.1,-2.5 2.5,-5.4 2.5,-7.2 0,-6.4 -7.1,-12.5 -15,-16.8 -5,-2.9 -12.4,-6.3 -12.4,-11.5 0,-1.3 0.4,-2.7 1.8,-3.6 1,-0.7 2.5,-1.1 4.2,-1.1 2.2,0 5.1,0.7 7.2,0.7 6.4,0 15.2,-2.2 20.5,-13.6 1.4,-3.2 2,-6.4 2,-9.2 0,-3.6 -0.6,-4.4 -0.6,-6.1 0,-1.4 1.4,-2.3 4.2,-2.3 3.9,0.3 3.9,1.8 6.1,1.8 z M 489,282 c -13.2,0 -17.2,-7.6 -17.2,-11.4 0,-3.6 1.4,-5.9 5,-8.4 2.5,-1.8 6.2,-3.6 9.1,-4.7 3.2,1.4 8.1,4.3 9.7,5.7 7.1,5 8.6,7.9 8.6,10.4 -0.1,6.9 -10.2,8.4 -15.2,8.4 z m 26.1,-70.9 c 0,3.5 -1.3,8.1 -4.3,13.1 -5.6,9.1 -10,10.9 -13.8,10.9 -3.2,0 -4.7,-2.6 -4.7,-6.4 0,-3.4 1.4,-7.6 3.9,-11.6 3.8,-6.1 9.2,-11.1 14,-11.1 3.2,0 4.9,1.6 4.9,5.1 z m -14.3,-114 c -3.1,0 -6.7,-1.9 -6.7,-6.9 0,-5.4 4.3,-7 7.5,-7 4.5,0 8.3,3.2 8.3,8.8 0,6.2 -4.7,13.6 -12.9,13.6 -0.9,0 -1.2,-0.6 -1.2,-1.1 0,-0.6 0.4,-0.9 0.9,-1.1 5.6,-1.1 7.8,-4.7 7.9,-7 -0.6,0.3 -2.3,0.7 -3.8,0.7 z m 66,3.9 c 0.6,0 1.3,-0.4 1.1,-1.2 l -2.3,-16 c -0.2,-1.1 -0.7,-1.4 -1.3,-1.4 -0.4,0 -0.9,0.2 -1.2,1 -0.7,1.4 -1.8,2.6 -3.8,2.6 -3.6,0 -6.9,-2.6 -15.4,-2.6 -11.1,0 -25.8,4.7 -25.8,20.9 0,16.1 12.9,21.3 24,25.4 11.7,4.3 21,7.5 21,19.7 0,13.6 -9.6,18 -18.6,18 -10,0 -21.8,-4.7 -26,-20.6 -0.4,-1.3 -0.8,-1.7 -1.8,-1.7 -0.9,0 -1.6,0.6 -1.6,2 v 20.4 c 0,1.2 0.7,1.8 1.4,1.8 0.5,0 1.1,-0.4 1.4,-0.9 0.8,-1.2 1.8,-2.3 4,-2.3 4.5,0 9.9,5.5 22.9,5.5 11.4,0 30.8,-3.6 30.8,-26.1 0,-8.9 -3.7,-20.4 -25.4,-26.5 -15.4,-4.3 -20.3,-10.7 -20.3,-18.6 0,-6.8 4,-13.4 15.1,-13.4 5.5,0 14.5,1.6 20.4,13.2 0.5,0.7 0.9,0.8 1.4,0.8 z m -6.2,146.5 c -5,6.6 -12.9,12.7 -22.8,12.7 -7.5,0 -11.9,-5.4 -11.9,-12.3 0,-21.4 23.7,-43.9 39.4,-43.9 5.4,0 9.3,2 9.3,7.8 0,8.3 -7.4,12.9 -20.4,16.8 -3.8,1.1 -11.8,2.9 -15.7,3.7 -1.8,2.9 -4.2,8.6 -4.2,13.1 0,6.1 3.1,9.7 8.6,9.7 6.4,0 12.5,-5 16,-8.9 1,-1.1 2.5,0.3 1.7,1.3 z m -7.2,-22.1 c 7.3,-2.4 14.1,-6.3 14.1,-12.9 0,-3.4 -1.5,-4.9 -5,-4.9 -4,0 -8.3,3.1 -10.7,5.6 -4,4 -8.3,8.9 -11.6,15.2 2.6,-0.2 8.2,-1.5 13.2,-3 z" /></g><g
           transform="matrix(0.0972,0,0,-0.0972,265.8281,238.3937)"
           id="g244"><path
             id="path246"
             style="fill:#ffffff;fill-opacity:1;fill-rule:nonzero;stroke:none"
             d="m 85.5,289.2 h 30.8 c 1.6,0 2,2.5 0.1,2.5 -3,0 -9.1,1.4 -9.1,7.9 V 353 c 0,6.1 3,8.2 16.2,8.2 12.8,0 24.8,-1.5 30.8,-18.5 0.5,-1.4 2.7,-1.3 2.4,0.8 l -3.9,21.1 H 86.6 c -2.3,0 -1.8,-2.7 -0.4,-2.7 4.3,0 9.6,-2 9.6,-9.8 V 301 c 0,-6.6 -3.8,-9.3 -10.3,-9.3 -1.7,-0.1 -1.8,-2.5 0,-2.5 z M 567.3,391.4 H 86.6 v 4.5 h 480.7 z m 0,14.6 H 86.6 v 10.4 H 567.3 Z M 196.5,365.3 c 22.1,0 37.9,-15.4 37.9,-39 0,-20.8 -15.4,-37.6 -37.9,-37.6 -22,0 -37.7,17.2 -37.7,37.6 -0.1,22.1 14.9,39 37.7,39 z m -25.5,-39 c 0,-19.3 8.9,-34.2 25.4,-34.2 14.7,0 25.7,14.2 25.7,34.2 0,24.7 -10,35.5 -25.7,35.5 C 181.1,361.8 171,347 171,326.3 Z M 239.8,289 c -1.4,0 -1.8,2.5 0.1,2.5 2.1,0 6.7,0.6 6.7,7.2 l -0.4,53 c 0,5.7 -2,10.5 -7.4,10.5 -1.8,0 -1.8,2.4 -0.4,2.4 h 22.1 c 1.4,0 1.4,-2.4 -0.2,-2.4 -3.2,0 -8.8,-1.4 -8.9,-10.5 l -0.5,-53.9 c 0,0 56.5,66.5 56.9,66.8 h 3.8 l 0.3,-63.7 c 0,-6.3 2.8,-9.7 9.6,-9.7 1.4,0 1.4,-2.1 0,-2.1 h -24.7 c -1.5,0 -1.5,2.1 0,2.1 2.5,0 10.1,0.5 10.3,8.7 l 0.6,46.4 -48.6,-57.3 z m 88.8,-0.3 c -2.5,0 -2,2.9 -0.6,2.9 2.9,0 7.6,1.4 7.6,7.2 v 53.8 c 0,5.7 -1.3,9.3 -8.1,9.3 -1.7,0 -1.7,2.7 -0.1,2.7 h 35.9 c 15.7,0 41.9,-7.5 41.9,-38.7 0,-31.5 -21.5,-37.2 -42.2,-37.2 z m 18.7,10.5 c 0,-6.8 3.9,-7.2 13.2,-7.2 16.1,0 32.3,8 32.3,33.5 0,24.8 -13.6,35.4 -31.6,35.4 h -3.8 c -4.8,0 -10.1,-1 -10.1,-10.4 z m 105.8,66.1 c 22.1,0 37.9,-15.4 37.9,-39 0,-20.8 -15.4,-37.6 -37.9,-37.6 -21.9,0 -37.7,17.2 -37.7,37.6 0,22.1 14.9,39 37.7,39 z m -25.5,-39 c 0,-19.3 8.9,-34.2 25.4,-34.2 14.7,0 25.8,14.2 25.8,34.2 0,24.7 -10,35.5 -25.8,35.5 -15.3,0 -25.4,-14.8 -25.4,-35.5 z M 495.9,289 c -1.4,0 -1.8,2.5 0.1,2.5 2.2,0 6.7,0.6 6.7,7.2 l -0.4,53 c 0,5.7 -2,10.5 -7.4,10.5 -1.8,0 -1.8,2.4 -0.4,2.4 h 22.1 c 1.4,0 1.4,-2.4 -0.2,-2.4 -3.2,0 -8.8,-1.4 -8.9,-10.5 L 507,297.8 c 0,0 56.5,66.5 56.9,66.8 h 3.8 l 0.4,-63.7 c 0,-6.3 2.7,-9.7 9.6,-9.7 1.4,0 1.4,-2.1 0,-2.1 H 553 c -1.4,0 -1.4,2.1 0,2.1 2.5,0 10.2,0.5 10.3,8.7 l 0.6,46.4 -48.7,-57.3 z" /></g></g></g><text
       id="text250"
       style="font-variant:normal;font-weight:normal;font-size:7.5px;font-family:Europa;-inkscape-font-specification:Europa-Regular;writing-mode:lr-tb;fill:#697279;fill-opacity:1;fill-rule:nonzero;stroke:none"
       transform="matrix(1,0,0,-1,29.8204,73.3562)"><tspan
         id="tspan248"
         y="0"
         x="0 3.855 7.9050002 11.805 13.905 18.0525 21.952499 24.4125 27.825001 31.875 35.790001 37.889999 41.805 45.645 51.465 55.365002 59.647499 61.747501 65.797501 69.712502 71.8125 74.6325 78.682503 80.497498 83.910004 86.010002 89.587502 93.487503 96.037498 98.857498 100.6725 104.7075 108.285 112.125 114.945 118.845 120.945 124.995 128.83501 132.2475 134.3475 137.925 141.97501 147.795 151.9425 153.80251 157.7025 160.52251 164.4225 168.705 170.80499 173.625 177.675 181.575 183.675 187.515 191.0925 193.91251 195.72749 199.2825 201.0975 203.9175 205.7325 209.63251 213.045 215.145 216.96001 220.875 222.97501 225.795 229.845">The person named on this certifcate has completed the activities in the</tspan></text>
<text
       id="text254"
       style="font-variant:normal;font-weight:normal;font-size:7.5px;font-family:Europa;-inkscape-font-specification:Europa-Regular;writing-mode:lr-tb;fill:#697279;fill-opacity:1;fill-rule:nonzero;stroke:none"
       transform="matrix(1,0,0,-1,44.8392,63.8562)"><tspan
         id="tspan252"
         y="0"
         x="0 3.8399999 6.6599998 9.4799995 13.32 16.897499 20.9475 24.8475 29.129999 31.23 34.049999 36.509998 40.349998 44.264999 47.677502 51.255001 53.805 55.619999 59.767502 62.587502 64.3125 66.412498 70.162498 74.212502 76.762497 78.862503 84.682503 88.732498 91.162498 95.0625 97.162498 98.977501 102.8925 105.375 109.425 111.975 117.795 121.635 124.455 126.27 130.32001 134.235 136.33501 140.175 144.4575 148.50751 152.4225 155.24249 157.3425 162.315 166.215 168.765 171.58501 173.39999 177.435 181.0125 184.85249 187.6725 191.57249 194.985 197.08501 201.13499">attached transcript. For more information about Certifcates of</tspan></text>
<text
       id="text258"
       style="font-variant:normal;font-weight:normal;font-size:7.5px;font-family:Europa;-inkscape-font-specification:Europa-Regular;writing-mode:lr-tb;fill:#697279;fill-opacity:1;fill-rule:nonzero;stroke:none"
       transform="matrix(1,0,0,-1,48.1017,54.3562)"><tspan
         id="tspan256"
         y="0"
         x="0 4.8150001 8.3924999 12.4425 14.2575 18.0525 21.502501 25.4025 31.2225 35.122501 39.037498 41.857498 43.9575 47.797501 51.712502 55.994999 58.095001 60.915001 64.964996 68.864998 70.964996 74.864998 79.327499 83.377502 85.927498 88.747498 90.847504 93.277496 97.177498 101.325 105.24 107.055 109.485 113.385 117.6675 119.7675 122.5875 126.6375 128.7375 133.02 136.92 140.4975 144.5475 150.36749 154.2675 156.36749 160.2675 162.1275 163.9425 168.09 169.905 174.1875 176.0475 179.94749 181.66499 183.765 187.32001 189.13499 192.5475 194.3625">Achievement and the efort required to become eligible, visit</tspan></text>
<text
       id="text262"
       style="font-variant:normal;font-weight:normal;font-size:7.5px;font-family:Europa;-inkscape-font-specification:Europa-Regular;writing-mode:lr-tb;fill:#697279;fill-opacity:1;fill-rule:nonzero;stroke:none"
       transform="matrix(1,0,0,-1,46.6354,44.8562)"><tspan
         id="tspan260"
         y="0"
         x="0 2.5725 6.4875002 9.3074999 13.2225 15.6525 19.5525 21.4125 25.3125 29.1525 31.702499 35.6175 37.342499 40.919998 44.970001 50.790001 54.517502 58.665001 61.095001 65.144997 69.195 71.767502 74.264999 78.315002 80.887497 83.385002 85.245003 89.144997 92.985001 95.535004 99.449997 101.265 105.18 109.3275 113.055 116.6325 120.5325 123.0825 125.9025 127.7175 131.7525 135.33 139.17 141.99001 145.89 148.3875 152.4375 155.00999 157.50751 161.3475 164.925 168.97501 170.78999 174.58501 178.035 181.935 187.755 191.655 195.57001 198.39">futurelearn.com/proof-of-learning/certifcate-of-achievement.</tspan></text>
<text
       id="text266"
       style="font-variant:normal;font-weight:normal;font-size:7.5px;font-family:Europa;-inkscape-font-specification:Europa-Regular;writing-mode:lr-tb;fill:#697279;fill-opacity:1;fill-rule:nonzero;stroke:none"
       transform="matrix(1,0,0,-1,339.6014,73.3562)"><tspan
         id="tspan264"
         y="0"
         x="0 3.855 7.9050002 9.7200003 13.1325 15.2325 18.809999 22.709999 25.26 28.08 29.895 33.93 37.5075 41.3475 44.1675 48.067501 50.1675 52.5975 56.497501 60.645 63.075001 66.974998 70.387497 74.287498 78.202499 81.022499 84.434998 86.535004 90.682503 93.112503 97.162498 101.2125 103.785 105.885 109.935 112.5075 114.6075 116.4675 120.3675 124.2075 126.7575 130.6725 132.4875 136.4025 140.55 142.27499 144.375 146.44501 149.265 151.36501 153.17999 156.5925 158.6925 162.6075 166.6575 169.47749 171.5775 175.4175 177.5175 180 184.05 186.60001 192.42 196.25999">This certifcate represents proof of learning. It is not a formal</tspan></text>
<text
       id="text270"
       style="font-variant:normal;font-weight:normal;font-size:7.5px;font-family:Europa;-inkscape-font-specification:Europa-Regular;writing-mode:lr-tb;fill:#697279;fill-opacity:1;fill-rule:nonzero;stroke:none"
       transform="matrix(1,0,0,-1,372.1964,63.8562)"><tspan
         id="tspan268"
         y="0"
         x="0 4.1475 8.0625 11.9025 13.7625 15.5775 19.612499 23.190001 27.030001 29.85 31.665001 35.715 39.630001 41.3475 43.447498 47.73 51.630001 55.7775 58.2075 62.107498 66.0075 67.724998 69.824997 73.875 76.425003 78.525002 82.672501 86.512497 89.0625 91.8825 93.982498 98.032501 100.605 102.705 106.545 108.645 112.9275 116.8275 120.975 123.405 127.305 131.205">qualifcation, degree, or part of a degree.</tspan></text>
</g></svg>